<?xml version="1.0" encoding="UTF-8"?>
<svg version="1.1" viewBox="0 0 2048 2048" width="2048" height="2048" xmlns="http://www.w3.org/2000/svg">
<path transform="translate(299,402)" d="m0 0h1450v13l-58 650-50 561-22 247-1 10-9 3-61 17-83 23-184 51-256 71-8-1-585-162-2-1-25-279-57-640-50-561z" fill="#E24D26"/>
<path transform="translate(568,705)" d="m0 0h910v9l-16 172-1 1h-694l2 16 15 166v4h661l-1 18-48 535-1 5-184 51-166 46-21 6-10-2-362-101-1-1-11-120-14-156v-9h182l3 30 10 114v2l7 1 79 21 82 22 33 9 10-2 190-51h4l2-28 18-200 1-9h-629l-1-3-49-542z" fill="#FBFBFB"/>
<path transform="translate(1024,524)" d="m0 0h593l-1 19-26 289-30 336-55 614-1 6-23 7-147 41-308 86h-2l-1-188 8-3 79-22 90-25 184-51 7-2h4l2-27 47-524 1-7h-661l-2-15-15-166v-5l694-1 16-172 1-9h-454z" fill="#F06428"/>
<path transform="translate(1038)" d="m0 0h97l15 25 16 26 17 28 10 16 1 1 16-27 10-16 17-28 15-25h97v276h-92l-1-134-17 26-13 20-11 17-13 20-8 12-2 1-11-17-13-20-11-17-26-40-2-3-1 135h-90z"/>
<path transform="translate(434)" d="m0 0h92v91h84v-91h92v276h-92v-92h-84v92h-92z" fill="#010000"/>
<path transform="translate(1023,1254)" d="m0 0h224v9l-20 223-1 5-201 54-3-1h2z" fill="#F06428"/>
<path transform="translate(767,887)" d="m0 0h257v185h-240l-1-3-16-177z" fill="#E24D26"/>
<path transform="translate(743)" d="m0 0h255v92h-82v184h-92v-184h-81z"/>
<path transform="translate(1395)" d="m0 0h92v185h130v91h-222z"/>
</svg>
