<?xml version="1.0" encoding="UTF-8"?>
<svg version="1.1" viewBox="0 0 2000 2000" width="500" height="500" xmlns="http://www.w3.org/2000/svg">
<path transform="translate(290,391)" d="m0 0h1421l-1 18-11 127-11 126-7 82-18 209-11 126-14 164-6 67-11 127-24 278-8 92-2 26-2 3-39 11-125 35-100 28-100 28-100 28-96 27-21 7h-7l-18-6-550-154-13-4-2-7-13-149-17-197-14-161-14-163-14-161-22-255-15-173-14-160-1-10zm500 297-1 792-26-7-65-18-107-29-55-15-17-5h-2l-1 163 1 2 67 18 308 84 47 13 7 1v-999zm265 0v609l16-2 234-37 4-1-3 24-14 130-5 48-16 4-210 58-6 3v163l10-2 289-80 66-18 2-2 2-13 15-163 14-152 11-117 5-55v-7l-22 3-213 32-23 4 1-44v-228l275-1 6-64 7-77 1-15z" fill="#F0CE30"/>
<path transform="translate(993)" d="m0 0h249v70l-136 1h-42l-1 31h179l1 3v159l-2 2h-248v-70l37-1h142v-17l1-13h-179l-1-1-1-154z" fill="#010100"/>
<path transform="translate(884)" d="m0 0h69l1 2v263l-2 1h-185l-1-1v-69l116-1 1-194z" fill="#020200"/>
</svg>
