<?xml version="1.0" encoding="UTF-8"?>
<svg version="1.1" viewBox="0 0 1866 2048" width="1869" height="2051" xmlns="http://www.w3.org/2000/svg">
<path transform="translate(1302,436)" d="m0 0h173l21 3 22 6 19 8 16 9 14 10 13 12 11 11 11 14 12 18 10 18 10 21 11 29 9 29 12 48 11 55 6 38 4 35 2 28 1 28v20l-2 40-4 35-6 35-7 30-10 34-14 41-11 28-12 27-13 25-12 19-11 14-11 12-9 9-13 10-13 8-19 9-15 5-25 5-11 1h-628v52h407v167l-3 24-6 23-8 19-8 15-10 14-9 11-12 13-8 7-16 13-20 13-16 9-15 8-28 12-31 11-43 12-39 9-41 7-33 4-26 2-29 1h-17l-42-2-37-4-41-7-36-8-37-10-36-12-24-10-25-12-22-13-17-12-10-8-10-9-8-7-11-12-12-16-10-17-7-15-7-21-4-22-1-11v-410l2-19 5-24 7-21 7-16 9-16 8-12 10-13 11-12 13-13 14-11 15-10 16-9 19-8 19-6 19-4 19-2 436-1 23-3 23-5 24-8 24-11 21-12 14-10 14-11 13-12 14-14 9-11 10-13 12-19 13-25 10-26 6-22 4-22 2-23zm-241 983-15 4-14 7-9 7-5 4-10 13-8 16-3 12-1 7v14l3 16 7 16 7 10 9 10 12 9 13 6 11 3 6 1h18l16-4 10-4 12-8 13-13 8-13 5-12 3-14v-20l-4-17-8-16-9-11-10-9-14-8-11-4-9-2z" fill="#FEDE57"/>
<path transform="translate(806)" d="m0 0h68l47 2 50 4 42 5 39 6 26 6 24 8 18 8 16 8 20 12 17 13 10 9 8 7 7 7 9 11 10 13 12 20 9 19 7 21 4 19 2 19v412l-2 19-5 24-8 24-11 23-12 19-13 16-11 12-13 12-16 12-19 11-19 9-24 8-20 4-19 2-436 1-25 3-25 6-24 8-22 10-21 12-17 12-11 9-12 11-7 6-7 8-9 10-14 19-12 20-8 16-7 16-8 24-5 24-2 15-1 15-1 194h-157l-23-3-21-5-19-7-17-8-17-11-13-10-13-12-9-9-11-14-11-15-12-21-13-27-9-24-9-29-11-47-8-41-6-38-4-36-2-32v-51l2-31 4-36 7-43 9-44 9-37 8-26 11-26 10-19 12-19 14-18 12-13 14-14 14-11 14-10 19-11 21-10 19-7 22-6 22-4 17-2 583-1 1-51h-408v-175l2-28 4-25 5-19 8-20 8-14 10-13 12-13 17-13 15-9 16-8 16-7 33-11 38-9 39-7 45-6 43-4 32-2zm-200 125-14 3-12 5-10 6-10 9-8 9-8 14-5 16-1 6v20l4 17 8 16 9 11 10 9 14 8 11 4 9 2h23l15-4 16-8 13-11 10-13 7-15 3-11 1-7v-16l-3-15-5-13-7-11-11-12-12-9-13-6-17-4z" fill="#3C78A9"/>
</svg>
