<?xml version="1.0" encoding="UTF-8"?>
<svg version="1.1" viewBox="0 0 900 900" width="225" height="225" xmlns="http://www.w3.org/2000/svg">
<path transform="translate(0)" d="m0 0h900v900h-900z" fill="#38008F"/>
<path transform="translate(0)" d="m0 0h900v900h-900zm441 45-15 4-16 8-28 16-26 15-24 14-26 15-77 44-38 22-26 15-28 16-17 10-11 9-8 9-8 16-3 12-1 18v310l1 30 4 16 6 12 8 10 12 10 49 28 71 41 28 16 26 15 24 14 28 16 52 30 19 11 13 5 8 2h23l13-4 16-8 18-10 24-14 21-12 52-30 21-12 19-11 52-30 42-24 19-11 22-13 13-11 7-10 5-10 4-16v-355l-3-14-5-12-9-12-8-7-19-12-77-44-17-10-28-16-24-14-23-13-24-14-23-13-24-14-28-16-18-10-13-5-8-2z" fill="#FCFCFC"/>
<path transform="translate(439,181)" d="m0 0h22l29 3 26 5 21 6 21 8 19 9 17 10 17 12 13 10 15 14 12 12 9 11 10 13 8 12 5 7v3l-23 13-24 14-23 13-17 10-24 14-4 2h-3l-6-10-12-14-9-9-17-12-15-8-16-6-16-4-7-1h-30l-17 3-16 5-19 9-12 8-11 9-11 11-9 12-8 14-6 13-5 15-3 14-1 8v20l2 15 4 15 7 19 6 11 10 14 12 13 9 8 10 7 14 8 14 6 19 5 15 2h20l20-3 19-6 19-9 13-9 11-9 8-8 12-16 3-5 5 1 27 15 30 18 11 6 26 15 15 9 4 4-17 25-13 16-14 15-7 7-8 7-15 12-20 13-18 10-22 10-24 8-25 6-30 4h-41l-29-4-25-6-26-9-20-9-21-12-16-11-16-13-10-9-17-17-9-11-13-18-8-13-6-10-11-23-8-22-7-28-4-26-1-10v-36l3-25 6-27 6-19 8-20 8-16 11-19 12-17 9-11 9-10 20-20 14-11 15-11 24-14 21-10 20-7 21-6 28-5z" fill="#FCFCFC"/>
<path transform="translate(441,45)" d="m0 0h17l17 5 21 11 17 10 26 15 21 12 52 30 28 16 26 15 19 11 24 14 23 13 43 25 14 10 8 9 4 7-12 6-24 14-25 14-15 9-26 15-15 9-4-4-7-11-8-11-11-14-12-13-12-12-11-9-16-12-16-10-18-10-23-10-22-7-27-6-23-3-13-1h-22l-27 3-26 5-21 6-25 10-19 10-17 10-19 14-14 12-22 22-11 14-10 14-8 13-7 12-10 22-7 20-6 22-4 22-2 18v36l3 25 5 24 7 24 10 24 9 19-8 5-20 11-24 14-23 13-27 16-16 9h-3l-5-13-2-10-1-30v-310l1-18 4-15 8-14 9-10 14-10 56-32 43-25 23-13 24-14 25-14 24-14 28-16 24-14 26-15 21-12 13-5z" fill="#9E78DA"/>
<path transform="translate(217,583)" d="m0 0 3 1 7 12 12 17 11 13 7 8 17 17 14 11 12 9 21 13 16 8 16 7 30 10 24 5 23 3h41l30-4 25-6 24-8 24-11 18-10 19-13 16-13 15-14 14-15 13-17 14-21 2-1 14 8 27 16 14 8 17 10 15 9 17 10 6 3 5 1 3-5 1 3-8 13-7 8-11 8-15 9-21 12-24 14-18 10-19 11-45 26-24 14-23 13-24 14-23 13-24 14-26 15-16 8-11 4-4 1h-23l-16-5-14-7-24-14-26-15-28-16-26-15-24-14-49-28-26-15-21-12-64-37-13-11-8-11-1-3 20-11 15-9 26-15 49-28z" fill="#2A006A"/>
<path transform="translate(437,317)" d="m0 0h30l16 3 18 6 16 8 14 9 10 8 11 11 12 16 2 5-27 15-24 14-21 12-24 14-26 15-23 13-26 15-48 28-10 5-2 2-8-18-5-15-3-14-1-10v-20l3-18 5-16 5-12 8-15 8-11 11-12 7-7 15-11 19-10 17-6 14-3z" fill="#9E78DA"/>
<path transform="translate(453,447)" d="m0 0h2l1 5 27 15 15 9 24 14 17 10 14 8 7 3 1 2 5 2-3 9-14 17-9 9-16 12-21 11-18 6-16 3-8 1h-20l-20-3-19-6-16-8-10-6-13-10-12-12-8-10-7-11 1-4 14-7 20-12 52-30 23-13z" fill="#2A006A"/>
<path transform="translate(640,372)" d="m0 0h17l2 2v36h37v-37l4-1h14l2 7v31h36l2 2v17l-1 1h-37v37h35l3 3v16l-1 1h-37l-1 38h-19l-1-37h-35l-1 36-1 1h-18l-1-1v-37h-37l-1-1v-18l38-1v-37l-32 1-6-1v-19l1-1h36l1-37z" fill="#F7F5FA"/>
<path transform="translate(662,430)" d="m0 0h33l1 13v24l-9 1h-27l-1-1v-36z" fill="#38008F"/>
<path transform="translate(441,850)" d="m0 0 8 1 3 2-8 1-4-3z" fill="#390090"/>
</svg>
